<?xml version="1.0" standalone="no"?>
<!DOCTYPE svg PUBLIC "-//W3C//DTD SVG 20010904//EN"
 "http://www.w3.org/TR/2001/REC-SVG-20010904/DTD/svg10.dtd">
<svg version="1.0" xmlns="http://www.w3.org/2000/svg"
 width="289.000000pt" height="287.000000pt" viewBox="0 0 289.000000 287.000000"
 preserveAspectRatio="xMidYMid meet">

<g transform="translate(0.000000,287.000000) scale(0.100000,-0.100000)"
fill="#131735" stroke="none">
<path d="M1270 2749 c-190 -24 -399 -107 -589 -233 -88 -59 -209 -176 -279
-271 -162 -219 -274 -577 -258 -825 17 -263 88 -483 221 -686 30 -47 55 -90
55 -96 0 -24 11 2 34 82 23 79 24 83 6 87 -27 7 -63 64 -113 178 -58 132 -73
186 -93 340 -30 231 4 438 105 651 67 141 119 213 235 330 194 194 420 310
679 348 132 20 207 20 347 1 318 -45 628 -228 804 -475 112 -158 170 -297 217
-520 20 -92 17 -314 -4 -423 -33 -165 -124 -387 -175 -428 l-24 -19 17 -65
c10 -36 22 -68 26 -70 27 -17 153 215 209 381 160 484 40 994 -320 1354 -140
141 -313 244 -527 316 -136 46 -398 65 -573 43z"/>
<path d="M1290 2590 c-203 -39 -371 -110 -515 -217 -123 -91 -141 -123 -43
-74 65 33 256 115 401 173 103 40 277 124 277 133 0 7 -13 5 -120 -15z"/>
<path d="M1500 2595 c0 -9 97 -54 360 -165 146 -62 281 -120 300 -130 113 -56
103 -29 -20 59 -127 91 -222 142 -335 180 -112 38 -305 73 -305 56z"/>
<path d="M1338 2488 c-18 -9 -29 -17 -25 -18 4 0 22 7 38 16 17 8 33 13 35 11
13 -13 -220 -112 -237 -101 -7 4 -9 3 -6 -3 8 -13 -18 -24 -37 -17 -17 7 -59
-14 -52 -25 6 -9 -36 -30 -147 -73 -45 -17 -95 -39 -111 -49 -16 -10 -33 -16
-38 -13 -4 3 -8 3 -8 0 0 -3 21 -17 48 -30 59 -29 350 -187 458 -249 45 -26
85 -47 88 -47 4 0 24 -11 46 -25 22 -14 43 -25 47 -25 5 0 0 5 -9 11 -25 14
-23 32 2 19 14 -8 26 -8 43 0 20 10 20 9 -3 -9 -14 -11 -22 -21 -19 -21 11 0
220 113 259 140 14 10 81 46 149 80 69 34 152 80 186 101 34 21 67 39 74 39
22 0 10 18 -19 29 -16 5 -30 14 -30 19 0 15 -214 109 -350 153 -36 11 -106 40
-156 65 -76 37 -98 44 -142 42 -28 -1 -66 -10 -84 -20z m152 -123 c37 -19 48
-57 26 -91 -32 -48 -88 -53 -133 -11 -32 28 -29 60 8 91 35 30 58 32 99 11z"/>
<path d="M590 2204 c-66 -77 -121 -158 -161 -237 -66 -129 -119 -345 -119
-487 0 -192 89 -511 161 -576 17 -16 23 3 95 331 14 66 28 123 31 128 2 4 19
7 37 7 19 0 56 14 91 36 35 20 88 41 128 50 88 18 256 18 327 -1 50 -13 53
-13 35 2 -21 17 -185 96 -222 107 -23 7 -23 9 -23 194 0 220 -5 259 -32 268
-11 3 -54 26 -96 51 -42 25 -107 61 -144 80 -69 34 -77 47 -57 85 21 39 3 26
-51 -38z"/>
<path d="M2260 2257 c0 -4 6 -16 12 -27 17 -26 3 -49 -45 -75 -35 -19 -37 -23
-37 -71 0 -28 3 -78 6 -112 6 -56 8 -60 35 -66 29 -5 29 -6 29 -77 0 -53 -4
-75 -15 -83 -14 -10 -14 -18 -1 -71 8 -33 20 -95 26 -139 17 -114 1 -121 -98
-41 l-43 35 -49 -33 c-52 -34 -55 -47 -10 -47 40 0 74 -15 118 -50 21 -16 55
-32 79 -36 42 -6 42 -7 53 -63 7 -31 29 -128 51 -217 21 -88 39 -170 39 -182
0 -41 20 -22 58 56 183 366 156 788 -73 1142 -41 64 -134 172 -135 157z"/>
<path d="M2110 2030 c0 -57 3 -101 6 -97 8 7 8 186 0 194 -3 3 -6 -40 -6 -97z"/>
<path d="M1957 2022 l-48 -24 2 -207 1 -206 -111 -65 c-60 -35 -108 -66 -106
-68 2 -2 27 1 55 7 28 6 84 11 123 11 l73 0 22 83 c38 143 43 180 26 198 -11
12 -14 35 -12 85 3 68 4 69 32 72 28 4 29 4 22 55 -3 29 -6 60 -6 70 0 22 -14
20 -73 -11z"/>
<path d="M1050 1800 c0 -88 0 -163 -1 -167 -1 -7 197 -115 318 -173 l82 -39
183 96 c101 52 189 100 197 106 11 9 12 41 6 167 -4 85 -8 156 -10 158 -2 2
-45 -20 -96 -49 -52 -29 -136 -76 -188 -105 l-94 -53 -61 31 c-34 17 -120 66
-192 109 -73 44 -135 79 -138 79 -3 0 -6 -72 -6 -160z"/>
<path d="M2052 1818 c3 -31 5 -33 47 -36 70 -5 91 3 91 38 l0 30 -71 0 -70 0
3 -32z"/>
<path d="M2160 1710 c-5 -59 -5 -100 1 -100 4 0 9 -9 12 -20 6 -25 27 -27 27
-2 0 24 -38 140 -40 122z"/>
<path d="M2077 1693 c-9 -16 -29 -113 -25 -124 2 -7 16 -1 35 15 30 25 30 27
19 65 -12 43 -21 57 -29 44z"/>
<path d="M865 1390 c-99 -19 -109 -24 -120 -61 -16 -53 -22 -59 -55 -49 l-29
8 -26 -116 c-56 -245 -107 -460 -130 -542 -13 -46 -22 -86 -20 -89 3 -2 28 1
58 7 126 25 333 36 459 24 155 -14 201 -28 296 -90 104 -68 148 -79 207 -53
25 11 59 31 78 45 107 81 251 113 462 102 185 -10 338 -23 363 -31 21 -7 22
-6 12 16 -5 13 -21 69 -34 124 -13 55 -40 163 -59 240 -20 77 -43 181 -52 230
-24 131 -22 127 -61 123 -31 -3 -35 1 -56 42 -21 41 -28 46 -78 58 -32 8 -116
14 -200 14 -164 1 -220 -11 -353 -78 l-76 -38 -58 31 c-118 64 -205 86 -348
89 -71 2 -152 -1 -180 -6z m376 -109 c42 -17 98 -45 124 -62 46 -29 47 -32 41
-67 -3 -20 -6 -157 -6 -304 l0 -267 -112 54 c-144 68 -215 85 -354 85 -100 0
-174 -12 -283 -46 -22 -6 -23 -5 -17 17 4 13 40 152 80 309 l72 285 75 17 c51
12 109 16 189 14 104 -2 122 -6 191 -35z m789 14 c41 -9 78 -19 83 -24 4 -4
30 -98 58 -207 27 -109 61 -241 75 -292 15 -51 25 -95 22 -97 -2 -2 -28 2 -58
10 -95 26 -272 39 -355 26 -90 -13 -225 -61 -300 -107 -32 -19 -58 -34 -59
-34 -1 0 -1 102 0 228 1 125 3 266 3 314 l1 88 60 30 c78 39 155 70 205 80 52
12 171 5 265 -15z"/>
<path d="M902 1210 c-54 -12 -62 -17 -62 -42 0 -19 4 -20 43 -14 126 19 144
19 246 -8 56 -14 120 -35 142 -46 22 -12 44 -18 49 -15 27 17 3 39 -85 82 -91
44 -101 46 -193 49 -53 2 -116 -1 -140 -6z"/>
<path d="M865 1087 c-29 -9 -40 -18 -40 -32 0 -16 5 -19 25 -16 14 2 79 4 145
5 l120 1 99 -43 c109 -46 116 -48 116 -29 0 23 -31 44 -125 83 -81 33 -100 37
-195 40 -66 2 -120 -1 -145 -9z"/>
<path d="M850 977 c-36 -10 -46 -17 -48 -36 -3 -22 -1 -23 30 -17 72 14 197
18 249 7 30 -6 93 -28 142 -48 48 -20 90 -33 93 -30 16 16 -13 41 -88 77 -119
57 -269 75 -378 47z"/>
<path d="M900 874 c-67 -9 -131 -35 -128 -52 3 -13 12 -16 48 -12 25 3 97 5
160 4 104 0 124 -3 205 -33 131 -47 135 -47 135 -22 0 17 -14 28 -67 52 -114
51 -251 75 -353 63z"/>
<path d="M1790 1219 c-25 -5 -82 -27 -127 -48 -66 -32 -83 -44 -83 -62 0 -26
15 -24 110 16 102 43 172 52 285 34 95 -15 96 -15 93 5 -6 41 -181 76 -278 55z"/>
<path d="M1742 1075 c-101 -35 -172 -72 -172 -90 0 -20 -3 -20 124 21 134 43
240 53 334 31 63 -15 77 -11 66 16 -9 26 -64 39 -174 44 -93 3 -113 1 -178
-22z"/>
<path d="M1770 965 c-83 -19 -158 -46 -171 -62 -6 -6 -8 -21 -4 -32 6 -20 8
-20 36 -5 48 24 150 53 231 64 70 10 168 3 231 -16 29 -9 21 31 -10 46 -41 20
-233 23 -313 5z"/>
<path d="M1815 863 c-104 -16 -218 -68 -223 -101 -4 -29 10 -28 99 9 101 41
202 54 315 41 49 -6 97 -14 107 -18 15 -6 18 -3 15 16 -2 17 -14 27 -43 38
-40 14 -214 24 -270 15z"/>
<path d="M650 486 l-55 -12 56 -41 c263 -195 509 -283 795 -283 316 0 602 97
813 278 l55 47 -66 8 c-66 8 -67 8 -115 -29 -80 -62 -307 -162 -426 -188 -136
-31 -387 -24 -537 14 -110 27 -316 127 -371 180 -46 44 -57 46 -149 26z"/>
<path d="M870 494 c1 -17 113 -75 214 -110 97 -34 312 -77 329 -67 5 3 -15 16
-43 29 -28 13 -83 46 -123 74 -51 35 -88 53 -126 60 -80 15 -251 25 -251 14z"/>
<path d="M1800 487 c-67 -13 -89 -23 -184 -91 -31 -21 -79 -47 -108 -57 l-53
-18 66 -1 c101 0 223 25 339 70 100 39 184 81 193 98 8 12 -184 11 -253 -1z"/>
</g>
</svg>
